<mxfile host="app.diagrams.net" modified="2023-02-13T02:27:05.690Z" agent="5.0 (Windows NT 10.0; Win64; x64) AppleWebKit/537.36 (KHTML, like Gecko) Chrome/103.0.0.0 Safari/537.36" etag="4_H-V1srZ7eeUw-9oSc8" version="20.8.18" type="github">
  <diagram name="第 1 页" id="LrjgyNlb1xR0Tq_DUaoB">
    <mxGraphModel dx="1114" dy="584" grid="1" gridSize="10" guides="1" tooltips="1" connect="1" arrows="1" fold="1" page="1" pageScale="1" pageWidth="827" pageHeight="1169" math="0" shadow="0">
      <root>
        <mxCell id="0" />
        <mxCell id="1" parent="0" />
        <mxCell id="DURUOgqbGRzKwxD4fX7g-3" value="" style="edgeStyle=orthogonalEdgeStyle;rounded=0;orthogonalLoop=1;jettySize=auto;html=1;entryX=0;entryY=0.5;entryDx=0;entryDy=0;" edge="1" parent="1" source="DURUOgqbGRzKwxD4fX7g-1" target="DURUOgqbGRzKwxD4fX7g-5">
          <mxGeometry relative="1" as="geometry" />
        </mxCell>
        <mxCell id="DURUOgqbGRzKwxD4fX7g-54" style="edgeStyle=orthogonalEdgeStyle;rounded=0;orthogonalLoop=1;jettySize=auto;html=1;exitX=0;exitY=0.5;exitDx=0;exitDy=0;" edge="1" parent="1" source="DURUOgqbGRzKwxD4fX7g-1" target="DURUOgqbGRzKwxD4fX7g-53">
          <mxGeometry relative="1" as="geometry" />
        </mxCell>
        <mxCell id="DURUOgqbGRzKwxD4fX7g-1" value="系统用户" style="rounded=1;whiteSpace=wrap;html=1;" vertex="1" parent="1">
          <mxGeometry x="130" y="270" width="120" height="60" as="geometry" />
        </mxCell>
        <mxCell id="DURUOgqbGRzKwxD4fX7g-38" style="edgeStyle=orthogonalEdgeStyle;rounded=0;orthogonalLoop=1;jettySize=auto;html=1;exitX=0.25;exitY=1;exitDx=0;exitDy=0;entryX=1;entryY=0.75;entryDx=0;entryDy=0;" edge="1" parent="1" source="DURUOgqbGRzKwxD4fX7g-2" target="DURUOgqbGRzKwxD4fX7g-5">
          <mxGeometry relative="1" as="geometry" />
        </mxCell>
        <mxCell id="DURUOgqbGRzKwxD4fX7g-39" style="edgeStyle=orthogonalEdgeStyle;rounded=0;orthogonalLoop=1;jettySize=auto;html=1;exitX=1;exitY=0.5;exitDx=0;exitDy=0;" edge="1" parent="1" source="DURUOgqbGRzKwxD4fX7g-2" target="DURUOgqbGRzKwxD4fX7g-8">
          <mxGeometry relative="1" as="geometry" />
        </mxCell>
        <mxCell id="DURUOgqbGRzKwxD4fX7g-2" value="机构" style="whiteSpace=wrap;html=1;rounded=1;" vertex="1" parent="1">
          <mxGeometry x="440" y="230" width="120" height="60" as="geometry" />
        </mxCell>
        <mxCell id="DURUOgqbGRzKwxD4fX7g-19" style="edgeStyle=orthogonalEdgeStyle;rounded=0;orthogonalLoop=1;jettySize=auto;html=1;exitX=0.25;exitY=1;exitDx=0;exitDy=0;entryX=0.592;entryY=-0.017;entryDx=0;entryDy=0;entryPerimeter=0;" edge="1" parent="1" source="DURUOgqbGRzKwxD4fX7g-4" target="DURUOgqbGRzKwxD4fX7g-16">
          <mxGeometry relative="1" as="geometry" />
        </mxCell>
        <mxCell id="DURUOgqbGRzKwxD4fX7g-21" style="edgeStyle=orthogonalEdgeStyle;rounded=0;orthogonalLoop=1;jettySize=auto;html=1;exitX=0.75;exitY=1;exitDx=0;exitDy=0;entryX=0.558;entryY=-0.05;entryDx=0;entryDy=0;entryPerimeter=0;" edge="1" parent="1" source="DURUOgqbGRzKwxD4fX7g-4" target="DURUOgqbGRzKwxD4fX7g-18">
          <mxGeometry relative="1" as="geometry" />
        </mxCell>
        <mxCell id="DURUOgqbGRzKwxD4fX7g-50" style="edgeStyle=orthogonalEdgeStyle;rounded=0;orthogonalLoop=1;jettySize=auto;html=1;exitX=1;exitY=0.5;exitDx=0;exitDy=0;" edge="1" parent="1" source="DURUOgqbGRzKwxD4fX7g-4" target="DURUOgqbGRzKwxD4fX7g-8">
          <mxGeometry relative="1" as="geometry" />
        </mxCell>
        <mxCell id="DURUOgqbGRzKwxD4fX7g-51" style="edgeStyle=orthogonalEdgeStyle;rounded=0;orthogonalLoop=1;jettySize=auto;html=1;exitX=0.5;exitY=1;exitDx=0;exitDy=0;entryX=0.25;entryY=0;entryDx=0;entryDy=0;" edge="1" parent="1" source="DURUOgqbGRzKwxD4fX7g-4" target="DURUOgqbGRzKwxD4fX7g-17">
          <mxGeometry relative="1" as="geometry" />
        </mxCell>
        <mxCell id="DURUOgqbGRzKwxD4fX7g-4" value="企业" style="rounded=1;whiteSpace=wrap;html=1;" vertex="1" parent="1">
          <mxGeometry x="454" y="390" width="120" height="60" as="geometry" />
        </mxCell>
        <mxCell id="DURUOgqbGRzKwxD4fX7g-5" value="用户机构关联" style="rounded=1;whiteSpace=wrap;html=1;" vertex="1" parent="1">
          <mxGeometry x="280" y="270" width="120" height="60" as="geometry" />
        </mxCell>
        <mxCell id="DURUOgqbGRzKwxD4fX7g-8" value="机构企业关联" style="rounded=1;whiteSpace=wrap;html=1;" vertex="1" parent="1">
          <mxGeometry x="580" y="310" width="120" height="60" as="geometry" />
        </mxCell>
        <mxCell id="DURUOgqbGRzKwxD4fX7g-15" value="" style="edgeStyle=orthogonalEdgeStyle;rounded=0;orthogonalLoop=1;jettySize=auto;html=1;" edge="1" parent="1" source="DURUOgqbGRzKwxD4fX7g-9" target="DURUOgqbGRzKwxD4fX7g-14">
          <mxGeometry relative="1" as="geometry" />
        </mxCell>
        <mxCell id="DURUOgqbGRzKwxD4fX7g-9" value="登录选择一个机构" style="rounded=1;whiteSpace=wrap;html=1;" vertex="1" parent="1">
          <mxGeometry x="220" y="380" width="120" height="60" as="geometry" />
        </mxCell>
        <mxCell id="DURUOgqbGRzKwxD4fX7g-10" value="" style="endArrow=classic;html=1;rounded=0;exitX=0.5;exitY=1;exitDx=0;exitDy=0;" edge="1" parent="1" source="DURUOgqbGRzKwxD4fX7g-1" target="DURUOgqbGRzKwxD4fX7g-9">
          <mxGeometry width="50" height="50" relative="1" as="geometry">
            <mxPoint x="390" y="330" as="sourcePoint" />
            <mxPoint x="440" y="280" as="targetPoint" />
          </mxGeometry>
        </mxCell>
        <mxCell id="DURUOgqbGRzKwxD4fX7g-14" value="查询和机构相关的企业，进行展示" style="whiteSpace=wrap;html=1;rounded=1;" vertex="1" parent="1">
          <mxGeometry x="220" y="490" width="120" height="60" as="geometry" />
        </mxCell>
        <mxCell id="DURUOgqbGRzKwxD4fX7g-28" style="edgeStyle=orthogonalEdgeStyle;rounded=0;orthogonalLoop=1;jettySize=auto;html=1;exitX=0.25;exitY=1;exitDx=0;exitDy=0;entryX=0.5;entryY=0;entryDx=0;entryDy=0;" edge="1" parent="1" source="DURUOgqbGRzKwxD4fX7g-16" target="DURUOgqbGRzKwxD4fX7g-24">
          <mxGeometry relative="1" as="geometry" />
        </mxCell>
        <mxCell id="DURUOgqbGRzKwxD4fX7g-29" style="edgeStyle=orthogonalEdgeStyle;rounded=0;orthogonalLoop=1;jettySize=auto;html=1;exitX=0.5;exitY=1;exitDx=0;exitDy=0;" edge="1" parent="1" source="DURUOgqbGRzKwxD4fX7g-16" target="DURUOgqbGRzKwxD4fX7g-25">
          <mxGeometry relative="1" as="geometry" />
        </mxCell>
        <mxCell id="DURUOgqbGRzKwxD4fX7g-34" style="edgeStyle=orthogonalEdgeStyle;rounded=0;orthogonalLoop=1;jettySize=auto;html=1;exitX=0.75;exitY=1;exitDx=0;exitDy=0;entryX=0.5;entryY=0;entryDx=0;entryDy=0;" edge="1" parent="1" source="DURUOgqbGRzKwxD4fX7g-16" target="DURUOgqbGRzKwxD4fX7g-33">
          <mxGeometry relative="1" as="geometry" />
        </mxCell>
        <mxCell id="DURUOgqbGRzKwxD4fX7g-16" value="建筑公司" style="rounded=1;whiteSpace=wrap;html=1;" vertex="1" parent="1">
          <mxGeometry x="355" y="490" width="120" height="60" as="geometry" />
        </mxCell>
        <mxCell id="DURUOgqbGRzKwxD4fX7g-30" style="edgeStyle=orthogonalEdgeStyle;rounded=0;orthogonalLoop=1;jettySize=auto;html=1;exitX=0.25;exitY=1;exitDx=0;exitDy=0;entryX=0.5;entryY=0;entryDx=0;entryDy=0;" edge="1" parent="1" source="DURUOgqbGRzKwxD4fX7g-17" target="DURUOgqbGRzKwxD4fX7g-26">
          <mxGeometry relative="1" as="geometry" />
        </mxCell>
        <mxCell id="DURUOgqbGRzKwxD4fX7g-31" style="edgeStyle=orthogonalEdgeStyle;rounded=0;orthogonalLoop=1;jettySize=auto;html=1;exitX=0.5;exitY=1;exitDx=0;exitDy=0;entryX=0.5;entryY=0;entryDx=0;entryDy=0;" edge="1" parent="1" source="DURUOgqbGRzKwxD4fX7g-17" target="DURUOgqbGRzKwxD4fX7g-27">
          <mxGeometry relative="1" as="geometry" />
        </mxCell>
        <mxCell id="DURUOgqbGRzKwxD4fX7g-36" style="edgeStyle=orthogonalEdgeStyle;rounded=0;orthogonalLoop=1;jettySize=auto;html=1;exitX=0.75;exitY=1;exitDx=0;exitDy=0;" edge="1" parent="1" source="DURUOgqbGRzKwxD4fX7g-17" target="DURUOgqbGRzKwxD4fX7g-35">
          <mxGeometry relative="1" as="geometry" />
        </mxCell>
        <mxCell id="DURUOgqbGRzKwxD4fX7g-17" value="劳务公司" style="rounded=1;whiteSpace=wrap;html=1;" vertex="1" parent="1">
          <mxGeometry x="500" y="490" width="120" height="60" as="geometry" />
        </mxCell>
        <mxCell id="DURUOgqbGRzKwxD4fX7g-18" value="项目" style="rounded=1;whiteSpace=wrap;html=1;" vertex="1" parent="1">
          <mxGeometry x="650" y="490" width="120" height="60" as="geometry" />
        </mxCell>
        <mxCell id="DURUOgqbGRzKwxD4fX7g-44" style="edgeStyle=orthogonalEdgeStyle;rounded=0;orthogonalLoop=1;jettySize=auto;html=1;exitX=0.5;exitY=1;exitDx=0;exitDy=0;entryX=0.5;entryY=0;entryDx=0;entryDy=0;" edge="1" parent="1" source="DURUOgqbGRzKwxD4fX7g-24" target="DURUOgqbGRzKwxD4fX7g-41">
          <mxGeometry relative="1" as="geometry" />
        </mxCell>
        <mxCell id="DURUOgqbGRzKwxD4fX7g-24" value="公司" style="rounded=1;whiteSpace=wrap;html=1;" vertex="1" parent="1">
          <mxGeometry x="315" y="590" width="50" height="40" as="geometry" />
        </mxCell>
        <mxCell id="DURUOgqbGRzKwxD4fX7g-45" style="edgeStyle=orthogonalEdgeStyle;rounded=0;orthogonalLoop=1;jettySize=auto;html=1;exitX=0.5;exitY=1;exitDx=0;exitDy=0;entryX=0.5;entryY=0;entryDx=0;entryDy=0;" edge="1" parent="1" source="DURUOgqbGRzKwxD4fX7g-25" target="DURUOgqbGRzKwxD4fX7g-42">
          <mxGeometry relative="1" as="geometry" />
        </mxCell>
        <mxCell id="DURUOgqbGRzKwxD4fX7g-25" value="项目" style="rounded=1;whiteSpace=wrap;html=1;" vertex="1" parent="1">
          <mxGeometry x="375" y="590" width="50" height="40" as="geometry" />
        </mxCell>
        <mxCell id="DURUOgqbGRzKwxD4fX7g-48" style="edgeStyle=orthogonalEdgeStyle;rounded=0;orthogonalLoop=1;jettySize=auto;html=1;exitX=0.5;exitY=1;exitDx=0;exitDy=0;" edge="1" parent="1" source="DURUOgqbGRzKwxD4fX7g-26" target="DURUOgqbGRzKwxD4fX7g-46">
          <mxGeometry relative="1" as="geometry" />
        </mxCell>
        <mxCell id="DURUOgqbGRzKwxD4fX7g-26" value="公司" style="rounded=1;whiteSpace=wrap;html=1;" vertex="1" parent="1">
          <mxGeometry x="490" y="590" width="50" height="40" as="geometry" />
        </mxCell>
        <mxCell id="DURUOgqbGRzKwxD4fX7g-49" style="edgeStyle=orthogonalEdgeStyle;rounded=0;orthogonalLoop=1;jettySize=auto;html=1;exitX=0.5;exitY=1;exitDx=0;exitDy=0;entryX=0.5;entryY=0;entryDx=0;entryDy=0;" edge="1" parent="1" source="DURUOgqbGRzKwxD4fX7g-27" target="DURUOgqbGRzKwxD4fX7g-47">
          <mxGeometry relative="1" as="geometry" />
        </mxCell>
        <mxCell id="DURUOgqbGRzKwxD4fX7g-27" value="项目" style="rounded=1;whiteSpace=wrap;html=1;" vertex="1" parent="1">
          <mxGeometry x="550" y="590" width="50" height="40" as="geometry" />
        </mxCell>
        <mxCell id="DURUOgqbGRzKwxD4fX7g-33" value="......" style="rounded=1;whiteSpace=wrap;html=1;" vertex="1" parent="1">
          <mxGeometry x="435" y="590" width="50" height="40" as="geometry" />
        </mxCell>
        <mxCell id="DURUOgqbGRzKwxD4fX7g-35" value="......" style="rounded=1;whiteSpace=wrap;html=1;" vertex="1" parent="1">
          <mxGeometry x="610" y="590" width="50" height="40" as="geometry" />
        </mxCell>
        <mxCell id="DURUOgqbGRzKwxD4fX7g-41" value="班组" style="rounded=1;whiteSpace=wrap;html=1;" vertex="1" parent="1">
          <mxGeometry x="315" y="680" width="50" height="40" as="geometry" />
        </mxCell>
        <mxCell id="DURUOgqbGRzKwxD4fX7g-42" value="人员" style="rounded=1;whiteSpace=wrap;html=1;" vertex="1" parent="1">
          <mxGeometry x="375" y="680" width="50" height="40" as="geometry" />
        </mxCell>
        <mxCell id="DURUOgqbGRzKwxD4fX7g-46" value="班组" style="rounded=1;whiteSpace=wrap;html=1;" vertex="1" parent="1">
          <mxGeometry x="490" y="680" width="50" height="40" as="geometry" />
        </mxCell>
        <mxCell id="DURUOgqbGRzKwxD4fX7g-47" value="人员" style="rounded=1;whiteSpace=wrap;html=1;" vertex="1" parent="1">
          <mxGeometry x="550" y="680" width="50" height="40" as="geometry" />
        </mxCell>
        <mxCell id="DURUOgqbGRzKwxD4fX7g-55" style="edgeStyle=orthogonalEdgeStyle;rounded=0;orthogonalLoop=1;jettySize=auto;html=1;exitX=0;exitY=0.5;exitDx=0;exitDy=0;entryX=0.5;entryY=1;entryDx=0;entryDy=0;" edge="1" parent="1" source="DURUOgqbGRzKwxD4fX7g-52" target="DURUOgqbGRzKwxD4fX7g-53">
          <mxGeometry relative="1" as="geometry" />
        </mxCell>
        <mxCell id="DURUOgqbGRzKwxD4fX7g-61" style="edgeStyle=orthogonalEdgeStyle;rounded=0;orthogonalLoop=1;jettySize=auto;html=1;exitX=0.25;exitY=1;exitDx=0;exitDy=0;entryX=0.5;entryY=0;entryDx=0;entryDy=0;" edge="1" parent="1" source="DURUOgqbGRzKwxD4fX7g-52" target="DURUOgqbGRzKwxD4fX7g-56">
          <mxGeometry relative="1" as="geometry" />
        </mxCell>
        <mxCell id="DURUOgqbGRzKwxD4fX7g-63" style="edgeStyle=orthogonalEdgeStyle;rounded=0;orthogonalLoop=1;jettySize=auto;html=1;exitX=0.5;exitY=1;exitDx=0;exitDy=0;entryX=0.5;entryY=0;entryDx=0;entryDy=0;" edge="1" parent="1" source="DURUOgqbGRzKwxD4fX7g-52" target="DURUOgqbGRzKwxD4fX7g-57">
          <mxGeometry relative="1" as="geometry" />
        </mxCell>
        <mxCell id="DURUOgqbGRzKwxD4fX7g-64" style="edgeStyle=orthogonalEdgeStyle;rounded=0;orthogonalLoop=1;jettySize=auto;html=1;exitX=0.75;exitY=1;exitDx=0;exitDy=0;entryX=0.5;entryY=0;entryDx=0;entryDy=0;" edge="1" parent="1" source="DURUOgqbGRzKwxD4fX7g-52" target="DURUOgqbGRzKwxD4fX7g-58">
          <mxGeometry relative="1" as="geometry" />
        </mxCell>
        <mxCell id="DURUOgqbGRzKwxD4fX7g-67" style="edgeStyle=orthogonalEdgeStyle;rounded=0;orthogonalLoop=1;jettySize=auto;html=1;exitX=1;exitY=0.5;exitDx=0;exitDy=0;entryX=0.5;entryY=0;entryDx=0;entryDy=0;" edge="1" parent="1" source="DURUOgqbGRzKwxD4fX7g-52" target="DURUOgqbGRzKwxD4fX7g-65">
          <mxGeometry relative="1" as="geometry">
            <Array as="points">
              <mxPoint x="200" y="530" />
              <mxPoint x="200" y="570" />
              <mxPoint x="255" y="570" />
            </Array>
          </mxGeometry>
        </mxCell>
        <mxCell id="DURUOgqbGRzKwxD4fX7g-52" value="APP用户" style="rounded=1;whiteSpace=wrap;html=1;" vertex="1" parent="1">
          <mxGeometry x="90" y="510" width="90" height="40" as="geometry" />
        </mxCell>
        <mxCell id="DURUOgqbGRzKwxD4fX7g-53" value="用户关联" style="rounded=1;whiteSpace=wrap;html=1;" vertex="1" parent="1">
          <mxGeometry x="20" y="380" width="90" height="40" as="geometry" />
        </mxCell>
        <mxCell id="DURUOgqbGRzKwxD4fX7g-56" value="建筑港app" style="rounded=1;whiteSpace=wrap;html=1;" vertex="1" parent="1">
          <mxGeometry x="35" y="600" width="50" height="40" as="geometry" />
        </mxCell>
        <mxCell id="DURUOgqbGRzKwxD4fX7g-57" value="深圳两制app" style="rounded=1;whiteSpace=wrap;html=1;" vertex="1" parent="1">
          <mxGeometry x="105" y="600" width="50" height="40" as="geometry" />
        </mxCell>
        <mxCell id="DURUOgqbGRzKwxD4fX7g-58" value="广州两制app" style="rounded=1;whiteSpace=wrap;html=1;" vertex="1" parent="1">
          <mxGeometry x="170" y="600" width="50" height="40" as="geometry" />
        </mxCell>
        <mxCell id="DURUOgqbGRzKwxD4fX7g-65" value="......" style="rounded=1;whiteSpace=wrap;html=1;" vertex="1" parent="1">
          <mxGeometry x="230" y="600" width="50" height="40" as="geometry" />
        </mxCell>
        <mxCell id="DURUOgqbGRzKwxD4fX7g-76" value="用户管理" style="rounded=1;whiteSpace=wrap;html=1;" vertex="1" parent="1">
          <mxGeometry x="205" y="788" width="100" height="50" as="geometry" />
        </mxCell>
        <mxCell id="DURUOgqbGRzKwxD4fX7g-78" value="系统管理" style="rounded=1;whiteSpace=wrap;html=1;" vertex="1" parent="1">
          <mxGeometry x="65" y="788" width="100" height="50" as="geometry" />
        </mxCell>
        <mxCell id="DURUOgqbGRzKwxD4fX7g-79" value="角色管理" style="rounded=1;whiteSpace=wrap;html=1;" vertex="1" parent="1">
          <mxGeometry x="490" y="788" width="100" height="50" as="geometry" />
        </mxCell>
        <mxCell id="DURUOgqbGRzKwxD4fX7g-80" value="菜单管理" style="rounded=1;whiteSpace=wrap;html=1;" vertex="1" parent="1">
          <mxGeometry x="340" y="788" width="100" height="50" as="geometry" />
        </mxCell>
        <mxCell id="DURUOgqbGRzKwxD4fX7g-81" value="部门管理" style="rounded=1;whiteSpace=wrap;html=1;" vertex="1" parent="1">
          <mxGeometry x="635" y="788" width="100" height="50" as="geometry" />
        </mxCell>
        <mxCell id="DURUOgqbGRzKwxD4fX7g-84" value="项目管理" style="rounded=1;whiteSpace=wrap;html=1;" vertex="1" parent="1">
          <mxGeometry x="205" y="858" width="100" height="50" as="geometry" />
        </mxCell>
        <mxCell id="DURUOgqbGRzKwxD4fX7g-85" value="公司管理" style="rounded=1;whiteSpace=wrap;html=1;" vertex="1" parent="1">
          <mxGeometry x="65" y="858" width="100" height="50" as="geometry" />
        </mxCell>
        <mxCell id="DURUOgqbGRzKwxD4fX7g-86" value="人员管理" style="rounded=1;whiteSpace=wrap;html=1;" vertex="1" parent="1">
          <mxGeometry x="490" y="858" width="100" height="50" as="geometry" />
        </mxCell>
        <mxCell id="DURUOgqbGRzKwxD4fX7g-87" value="班组管理" style="rounded=1;whiteSpace=wrap;html=1;" vertex="1" parent="1">
          <mxGeometry x="340" y="858" width="100" height="50" as="geometry" />
        </mxCell>
        <mxCell id="DURUOgqbGRzKwxD4fX7g-88" value="薪资管理" style="rounded=1;whiteSpace=wrap;html=1;" vertex="1" parent="1">
          <mxGeometry x="635" y="858" width="100" height="50" as="geometry" />
        </mxCell>
        <mxCell id="DURUOgqbGRzKwxD4fX7g-89" value="评价管理" style="rounded=1;whiteSpace=wrap;html=1;" vertex="1" parent="1">
          <mxGeometry x="205" y="938" width="100" height="50" as="geometry" />
        </mxCell>
        <mxCell id="DURUOgqbGRzKwxD4fX7g-90" value="培训管理" style="rounded=1;whiteSpace=wrap;html=1;" vertex="1" parent="1">
          <mxGeometry x="65" y="938" width="100" height="50" as="geometry" />
        </mxCell>
        <mxCell id="DURUOgqbGRzKwxD4fX7g-91" value="财务管理" style="rounded=1;whiteSpace=wrap;html=1;" vertex="1" parent="1">
          <mxGeometry x="490" y="938" width="100" height="50" as="geometry" />
        </mxCell>
        <mxCell id="DURUOgqbGRzKwxD4fX7g-92" value="考勤管理" style="rounded=1;whiteSpace=wrap;html=1;" vertex="1" parent="1">
          <mxGeometry x="340" y="938" width="100" height="50" as="geometry" />
        </mxCell>
        <mxCell id="DURUOgqbGRzKwxD4fX7g-93" value="发工资管理" style="rounded=1;whiteSpace=wrap;html=1;" vertex="1" parent="1">
          <mxGeometry x="635" y="938" width="100" height="50" as="geometry" />
        </mxCell>
        <mxCell id="DURUOgqbGRzKwxD4fX7g-94" value="系统模块" style="rounded=1;whiteSpace=wrap;html=1;" vertex="1" parent="1">
          <mxGeometry x="65" y="738" width="670" height="40" as="geometry" />
        </mxCell>
      </root>
    </mxGraphModel>
  </diagram>
</mxfile>
